<svg width="20" height="20" viewBox="0 0 20 20" fill="none" xmlns="http://www.w3.org/2000/svg">
<path d="M10.0001 3.23511H9.99195C6.55293 3.23511 3.45537 5.67177 1.71553 9.75748C1.65049 9.91336 1.65049 10.0938 1.71553 10.2415C2.2765 11.5616 2.98382 12.711 3.79683 13.6627L6.80496 10.6271C6.77244 10.4302 6.74805 10.2169 6.74805 10.0036C6.74805 8.19047 8.20333 6.72191 10.0001 6.72191C10.2115 6.72191 10.4228 6.74652 10.618 6.77934L13.3334 4.0383C12.2928 3.51405 11.1627 3.23511 10.0001 3.23511ZM18.2846 9.75748C17.5367 8.00177 16.5367 6.54141 15.3578 5.45846L12.683 8.15765C13.0326 8.68272 13.244 9.32265 13.244 10.0036C13.244 11.8085 11.7887 13.2771 10.0001 13.2771C9.32528 13.2771 8.69114 13.063 8.17081 12.711L5.59358 15.3117C6.91878 16.2552 8.42285 16.7721 9.99195 16.7721H10.0001C13.4472 16.7721 16.5448 14.3272 18.2846 10.2415C18.3497 10.0938 18.3497 9.91336 18.2846 9.75748Z" fill="#94A3B8"/>
<path d="M16.8376 3.09519C17.0815 3.33311 17.0815 3.72692 16.8376 3.96484L15.3579 5.45801L12.6831 8.15721L11.5047 9.34592L11.797 9.0518C11.9434 9.33074 12.0247 9.65891 12.0247 10.0035C12.0247 11.1275 11.1141 12.0463 10.0003 12.0463C9.65914 12.0463 9.33424 11.9645 9.05799 11.8171L4.01645 16.9037C3.8945 17.026 3.74003 17.0834 3.58556 17.0834C3.43108 17.0834 3.26848 17.026 3.15466 16.9037C2.95141 16.6986 2.91889 16.3696 3.08149 16.1317L3.10588 16.0989L11.8295 7.29658L14.4067 4.69584L15.1303 3.96484C15.1465 3.94843 15.1628 3.93202 15.1709 3.91561C15.1872 3.89921 15.2034 3.8828 15.2116 3.86639L15.9758 3.09519C16.2197 2.85727 16.6018 2.85727 16.8376 3.09519Z" fill="#94A3B8"/>
</svg>
