<svg width="20" height="20" viewBox="0 0 20 20" fill="none" xmlns="http://www.w3.org/2000/svg">
<path d="M9.99989 12.1818C11.2518 12.1818 12.2666 11.2049 12.2666 9.99993C12.2666 8.79495 11.2518 7.81812 9.99989 7.81812C8.748 7.81812 7.73315 8.79495 7.73315 9.99993C7.73315 11.2049 8.748 12.1818 9.99989 12.1818Z" fill="#94A3B8"/>
<path d="M18.4662 9.81455C17.7997 8.15508 16.6426 6.71997 15.138 5.68659C13.6333 4.65321 11.8471 4.06686 10 4C8.15291 4.06686 6.36665 4.65321 4.862 5.68659C3.35735 6.71997 2.20027 8.15508 1.53376 9.81455C1.48875 9.93439 1.48875 10.0656 1.53376 10.1855C2.20027 11.8449 3.35735 13.28 4.862 14.3134C6.36665 15.3468 8.15291 15.9331 10 16C11.8471 15.9331 13.6333 15.3468 15.138 14.3134C16.6426 13.28 17.7997 11.8449 18.4662 10.1855C18.5113 10.0656 18.5113 9.93439 18.4662 9.81455V9.81455ZM10 13.5455C9.27149 13.5455 8.55933 13.3375 7.95359 12.9479C7.34785 12.5584 6.87574 12.0046 6.59695 11.3568C6.31816 10.7089 6.24521 9.99607 6.38734 9.30832C6.52947 8.62057 6.88028 7.98883 7.39542 7.49299C7.91055 6.99714 8.56688 6.65947 9.2814 6.52267C9.99591 6.38587 10.7365 6.45608 11.4096 6.72443C12.0827 6.99277 12.6579 7.4472 13.0627 8.03025C13.4674 8.6133 13.6834 9.29878 13.6834 10C13.6819 10.9399 13.2934 11.8408 12.6029 12.5054C11.9125 13.17 10.9764 13.544 10 13.5455V13.5455Z" fill="#94A3B8"/>
</svg>
